<svg width="368" height="64" xmlns="http://www.w3.org/2000/svg">
  <path d="m55.909,2l-14.971001,7.75l-13.875,-6l-18.972,1.25l-6.091,53.25l19.615,-1.667l21.771002,5.417l18.613998,-6.75l-6.091,-53.25zm-1.657001,3.109l5.582001,48.799001l-16.063999,5.825001l-0.089001,-1.874001l14.171001,-5.350002l-4.842003,-44.592999l-11.445,5.428l-0.077999,-1.625999l0.371002,-0.191l12.393997,-6.418zm-11.636997,30.340001c0.222,-0.472 0.439999,-1.135002 0.543999,-2.065002c0,0 1.102001,0.054001 2.458,3.009003c0,0 0.591999,-0.059002 0.297001,-1.988003c0,0 2.116997,-0.853001 0.974998,-4.603998c0,0 1.776001,2.446001 1.186001,-0.734001c0,0 1.947998,-2.387999 -0.379002,-3.976c0,0 0.080002,-1.761 1.479,-1.535c0,0 1.398003,-3.636 0.723999,0.681c0,0 0.040001,0.854 0.929001,1.817001c0,0 0.382999,-1.419001 -0.295998,-2.949001c0,0 1.398998,-2.618 1.271,-4.886999c0,0 -4.532001,1.681 -9.575001,1.178999c0,0 0.245998,-0.938 -0.443001,-1.465l-0.140999,-2.964999l0.119999,-0.057l9.984001,-4.734l4.487999,41.340999l-12.629002,4.769001l-0.991997,-20.836998zm-1.838001,-17.594002c-0.521,0.743 -1.966999,3.028 -1.088001,4.396c0,0 -0.425999,2.963001 -1.02,-1.358999c0,0 -0.970997,2.551001 -2.285,1.982c0,0 -0.361,2.581999 -1.188,0.851999c0,0 0.677002,0.285 0.826,-0.51c0,0 -1.909,-2.045 -3.049999,1.047001c0,0 -0.931999,0.371 -0.570999,1.820999c0,0 0.653999,-1.195999 0.993999,0.625c0,0 0.361,-0.284 0.512001,-2.615c0,0 0.905998,-0.452 0.205997,1.389999c0,0 2.076,0.033001 -1.140999,1.874001c0,0 -0.178001,-0.030001 -0.318001,-0.736c0,0 -0.487,1.700001 -1.484999,2.302999c0,0 0.233999,0.679001 -0.506001,0.991001c0,0 -0.401001,1.052 0.552999,1.052c0,0 0.825001,-2.528 2.393002,-0.539c0,0 0.299,-0.113001 -0.167999,-1.108002c0,0 0.823997,0.316 1.142998,1.619001c0,0 0.508999,-0.088001 0.59,-1.221001c0,0 0.639,-1.448 1.678001,0.257c0,0 -1.379002,-0.399 -1.737,0.992001c0,0 0.651997,-0.285 1.057999,0.114c0,0 0.041,0.649 -0.375,0.9c0.18,0.337999 0.375,0.662001 0.646999,0.935999c0.075802,0.070602 0.124901,0.165199 0.138901,0.267799c0.014,0.1026 -0.007801,0.206902 -0.061901,0.2952c0.734001,1.256001 2.09,2.928001 3.039001,0.259003c0,0 -1.27,0.720997 -1.695,-1.268002c0,0 2.563,0.326 3.744999,2.896999l0.994999,20.948002l-19.931999,-5.59l0.299,-2.957001c0.414,1.061001 0.899,1.492001 0.899,1.492001c-0.563,-4.615002 2.767,-7.572002 2.767,-7.572002c0.646999,-3.167999 -0.997999,-4.59 -2.523001,-5.23l0.783001,-7.747999c0.313999,-0.391001 0.499001,-0.652 0.499001,-0.652c-0.113001,-0.389 -0.223001,-0.73 -0.328001,-1.042l0.759001,-7.518c0.637999,0.777 0.711,1.483 0.532,2.125c-0.820999,2.952999 0.235001,3.858 0.235001,3.858c0.640999,-2.493999 2.841,-2.892 2.841,-2.892c-0.125999,-2.331999 1.228001,-4.983 1.228001,-4.983c-1.473001,-2.531 -3.580002,-0.823999 -4.684,0.384001l0.085999,-0.849001c0.226,-0.291 0.462,-0.608 0.717001,-0.969999c0,0 -0.211,-0.145 -0.594,-0.251l0.671999,-6.655l13.684002,5.672l0.095997,0.04l0.135002,2.875999zm-15.582001,-2.035c-0.681999,0.032001 -1.555,0.267 -2.581999,0.977001c0,0 -0.488001,4.481998 2.313999,1.672998l-0.313,3.101c-0.366001,-1.223999 -1.234001,-1.65 -1.234001,-1.65c-0.849998,0.514 -0.764999,1.194 -0.764999,1.194c0.771,0.116001 1.242001,1.044001 1.519001,1.914c-0.156,0.239 -0.423,0.512001 -0.884001,0.557001c0,0 0.537001,0.806999 1.056999,1.032999l-0.056999,0.556c-1.209999,-1.813 -1.733999,1.83 -1.733999,1.83c-2.991001,-3.332998 0.793999,-5.000999 0.793999,-5.000999c-2.316999,-0.979 -3.389999,-3.785 -3.389999,-3.785c-0.113001,1.743 -0.792,1.666 -0.792,1.666c-5.31,-3.104 -6.266,1.895 -6.266,1.895c0.842999,2.647999 -0.964001,2.951 -0.964001,2.951c1.75,0.302 2.653,-2.121 2.653,-2.121c3.618001,1.817999 1.697,8.330999 1.697,8.330999c1.411001,0.83 1.807001,3.559 1.807001,3.559c0.983,0.298 1.99,0.900002 2.695999,1.376999c0.137001,-0.122997 0.278,-0.239998 0.426001,-0.348999c-1.65,-1.166 -1.653,-3.054001 -1.653,-3.054001c1.497,0 3.089001,-1.289999 4.237999,-2.476l-0.619999,6.143c-0.2791,-0.070099 -0.5618,-0.124599 -0.847,-0.162998c-0.2666,0.127899 -0.517,0.286999 -0.746,0.473999l0.122,0.095001c-1.664,3.196999 0.586,4.479 0.959,4.663998l-0.955,9.450001l-13.235999,1.035l4.415,-41.813999l13.018,-0.766l-0.677,6.704zm-2.674,36.423l20.159,5.653999l0.09,1.889l-20.496,-5.099998l0.247,-2.443001zm17.965,-40.509l0.076,1.59l-13.542,-5.613l0.174,-1.726l12.950001,5.601l0.341999,0.148zm-30.597,-4.848l16.316999,-1.075l-0.181,1.794l-14.528999,0.854l-4.737,44.874001l14.765,-1.157001l-0.246,2.428001l-17.013,1.446999l5.624,-49.164999z" fill="white" id="path64"/>
  <path d="m32.062,36.6171c0,0 2.121998,0.396999 1.272999,4.486c0,0 0.339001,3.187 2.200001,2.896c0,0 0.507999,-4.599098 2.881001,-8.122101c0,0 -0.962002,0.958099 -2.053001,-2.218899c-0.164997,0.119999 -0.389,0.1479 -0.576,-0.038101c-0.469997,-0.468998 -0.753998,-1.059998 -1.059998,-1.653999c-0.0434,-0.0854 -0.0611,-0.181599 -0.051003,-0.277c-1.543999,-0.575998 -4.671,-1.153898 -5.113998,3.393101c0.000999,0 0.591999,3.130001 2.5,1.535z" fill="white" id="path66"/>
  <path d="m31.09,25.9951c0.146,2.048 0.42,2.67 0.778999,1.819c0.361,-0.844 -0.778999,-1.819 -0.778999,-1.819z" fill="white" id="path68"/>
  <path d="m30.448999,27.9279c0,0 0.597,-0.088001 0.426001,-0.839001c0,0 -0.426001,0.044001 -0.426001,0.839001z" fill="white" id="path70"/>
  <path d="m30.219,23.811001c0,0 -1.504999,0 -0.973,0.768999c0.528999,0.767 0.973,-0.768999 0.973,-0.768999z" fill="white" id="path72"/>
  <path d="m37.740002,42.467999c0,0 0.459999,-0.938 0.445,-2.383999c0.000999,0 -1.463001,1.672001 -0.445,2.383999z" fill="white" id="path74"/>
  <path d="m47.226002,36.589802c0,0 -1.060001,0.966999 -0.866001,1.848c0.190998,0.883999 1.120998,-0.174 0.866001,-1.848z" fill="white" id="path76"/>
  <path d="m51.465,39.716999c0.465,-0.813999 -2.547001,-1.821999 -2.547001,-1.821999c0.595001,0.882 2.125,2.548 2.547001,1.821999z" fill="white" id="path78"/>
  <path d="m48.096001,39.890999c0.707001,-1.209999 -2.139999,-0.631001 -2.139999,-0.631001c0,0 1.864998,1.109001 2.139999,0.631001z" fill="white" id="path80"/>
  <path d="m49.215,40.143101c0,0 -0.57,1.274998 -2.688,1.812c0,0 0.446999,1.024998 0,2.958c0,0 2.138,-2.728001 3.369999,1.217999c0,0 1.056999,0.574001 1.798,-2.999001c0,0 -0.889,-1.286999 -1.185001,-3.117001c0.001003,-0.000999 -0.292999,2.344002 -1.294998,0.128002z" fill="white" id="path82"/>
  <path d="m49.632999,28.509899c0.135002,-0.112999 0.240002,-0.153999 0.240002,-0.153999c-1.037003,-1.677 -0.658001,0.74 -0.658001,0.74c0.067001,-0.159 0.146,-0.281 0.227001,-0.383999c0.055,0.716 -0.117001,1.782999 -1.235001,2.796999c-0.000999,0 2.396999,-0.903999 1.425999,-2.999001z" fill="white" id="path84"/>
  <path d="m31.332001,15.955c0.522999,-1.226 -1.121,-2.622 -1.121,-2.622c0.211,2.947001 0.601999,3.847 1.121,2.622z" fill="white" id="path86"/>
  <path d="m29.288,16.1161c0,0 0.851,-0.126 0.610001,-1.204c0,0 -0.610001,0.061 -0.610001,1.204z" fill="white" id="path88"/>
  <text font-weight="normal" font-size="48px" font-family="PT Sans Caption" fill="#ffffff" xml:space="preserve" x="69.999924" y="40.975868" id="text102">
   <tspan x="69.999924" y="40.975868" id="tspan104">Planet Data</tspan>
  </text>
</svg>
